# xmcd
#
# Track frame offsets: 
#        150
#        13265
#        26384
#        38165
#        51442
#        64752
#        79594
#        94682
#        105357
#        122577
#        138034
#        155054
#        162279
#        173619
#        184931
#        198412
#
# Disc length: 3019 seconds
#
# Revision: 1
# Processed by: cddbd v1.5.2PL0 Copyright (c) Steve Scherf et al.
# Submitted via: ExactAudioCopy v1.0b4
#
DISCID=c80bc910
DTITLE=Fleetwood Mac - The Essential [CD 2 of 2)
DYEAR=1968
DGENRE=Blues
TTITLE0=Dust My Broom
TTITLE1=Rollin' Man
TTITLE2=Lazy Poker Blues
TTITLE3=I Believe My Time Ain't Long
TTITLE4=Shake Your Money Maker
TTITLE5=Cold Black Night
TTITLE6=Got To Move
TTITLE7=Stop Messin' Around
TTITLE8=Rockin' Boogie
TTITLE9=Talk With You
TTITLE10=Doctor Brown
TTITLE11=Jigsaw Puzzle Blues
TTITLE12=Like Crying
TTITLE13=The World Keep On Turning
TTITLE14=My Heart Beat Like A Hammer
TTITLE15=Need Your Love So Bad
EXTD=
EXTT0=
EXTT1=
EXTT2=
EXTT3=
EXTT4=
EXTT5=
EXTT6=
EXTT7=
EXTT8=
EXTT9=
EXTT10=
EXTT11=
EXTT12=
EXTT13=
EXTT14=
EXTT15=
PLAYORDER=
